HIERARCHY
ROOT Pelvis
{
	OFFSET 0.000000 0.000000 0.000000
	CHANNELS 6 Xposition Yposition Zposition Xrotation Yrotation Zrotation
	JOINT LeftUpLeg_virtual
	{
		OFFSET 0.000000 0.000000 0.000000
		CHANNELS 3 Xrotation Yrotation Zrotation
		JOINT LeftUpLeg
		{
			OFFSET 18.735201 -5.666702 -4.541200
			CHANNELS 3 Xrotation Yrotation Zrotation
			JOINT LeftLeg
			{
				OFFSET -0.021200 -31.938179 0.493100
				CHANNELS 3 Xrotation Yrotation Zrotation
				JOINT LeftFoot
				{
					OFFSET 0.021200 -31.938179 -4.336299
					CHANNELS 3 Xrotation Yrotation Zrotation
					JOINT LeftToeBase
					{
						OFFSET 0.943001 -26.722000 15.023500
						CHANNELS 3 Xrotation Yrotation Zrotation
						End Site
						{
							OFFSET 0 0 0
						}
					}
				}
			}
		}
	}
	JOINT RightUpLeg_virtual
	{
		OFFSET 0.000000 0.000000 0.000000
		CHANNELS 3 Xrotation Yrotation Zrotation
		JOINT RightUpLeg
		{
			OFFSET -18.735201 -5.666702 -4.541200
			CHANNELS 3 Xrotation Yrotation Zrotation
			JOINT RightLeg
			{
				OFFSET 0.018946 -31.938133 0.493100
				CHANNELS 3 Xrotation Yrotation Zrotation
				JOINT RightFoot
				{
					OFFSET -0.018946 -31.938126 -4.336299
					CHANNELS 3 Xrotation Yrotation Zrotation
					JOINT RightToeBase
					{
						OFFSET -0.943001 -26.722004 15.023500
						CHANNELS 3 Xrotation Yrotation Zrotation
						End Site
						{
							OFFSET 0 0 0
						}
					}
				}
			}
		}
	}
	JOINT Hips_virtual
	{
		OFFSET 0.000000 0.000000 0.000000
		CHANNELS 3 Xrotation Yrotation Zrotation
		JOINT Hips
		{
			OFFSET -0.000000 -0.000000 -0.000000
			CHANNELS 3 Xrotation Yrotation Zrotation
			JOINT Spine
			{
				OFFSET 0.000000 10.199997 -0.299500
				CHANNELS 3 Xrotation Yrotation Zrotation
				JOINT Spine1
				{
					OFFSET 0.000000 11.900002 -1.516600
					CHANNELS 3 Xrotation Yrotation Zrotation
					JOINT Spine2
					{
						OFFSET 0.000000 13.600006 -2.842500
						CHANNELS 3 Xrotation Yrotation Zrotation
						JOINT Neck_virtual
						{
							OFFSET 0.000000 0.000000 0.000000
							CHANNELS 3 Xrotation Yrotation Zrotation
							JOINT Neck
							{
								OFFSET 0.000000 9.624100 -2.890100
								CHANNELS 3 Xrotation Yrotation Zrotation
								JOINT Head
								{
									OFFSET 0.000000 14.068802 -1.351900
									CHANNELS 3 Xrotation Yrotation Zrotation
									End Site
									{
										OFFSET 0 0 0
									}
								}
							}
						}
						JOINT LeftShoulder_virtual
						{
							OFFSET 0.000000 0.000000 0.000000
							CHANNELS 3 Xrotation Yrotation Zrotation
							JOINT LeftShoulder
							{
								OFFSET 15.263000 10.923401 -0.547700
								CHANNELS 3 Xrotation Yrotation Zrotation
								JOINT LeftArm
								{
									OFFSET 25.438599 -2.830597 -13.032500
									CHANNELS 3 Xrotation Yrotation Zrotation
									JOINT LeftForeArm
									{
										OFFSET 29.960503 0.000000 0.000000
										CHANNELS 3 Xrotation Yrotation Zrotation
										JOINT LeftHand
										{
											OFFSET 27.849251 0.000000 0.000000
											CHANNELS 3 Xrotation Yrotation Zrotation
											End Site
											{
												OFFSET 0 0 0
											}
										}
									}
								}
							}
						}
						JOINT RightShoulder_virtual
						{
							OFFSET 0.000000 0.000000 0.000000
							CHANNELS 3 Xrotation Yrotation Zrotation
							JOINT RightShoulder
							{
								OFFSET -15.263000 10.923401 -0.547700
								CHANNELS 3 Xrotation Yrotation Zrotation
								JOINT RightArm
								{
									OFFSET -25.438599 -2.830597 -13.032500
									CHANNELS 3 Xrotation Yrotation Zrotation
									JOINT RightForeArm
									{
										OFFSET -29.960503 0.000000 0.000000
										CHANNELS 3 Xrotation Yrotation Zrotation
										JOINT RightHand
										{
											OFFSET -27.849251 0.000000 0.000000
											CHANNELS 3 Xrotation Yrotation Zrotation
											End Site
											{
												OFFSET 0 0 0
											}
										}
									}
								}
							}
						}
					}
				}
			}
		}
	}
}
MOTION
Frames: 13
Frame Time: 0.03333333
180.727539 24.253904 -35.616322 0.000000 0.000000 0.000000 -99.816945 15.410252 39.261505 -120.620458 -8.675389 25.637226 95.048728 -0.898815 -2.723304 30.021482 -1.403376 -9.887868 0.000000 0.000000 0.000000 -107.292573 -6.283918 59.296663 -123.871669 -13.162013 8.641984 76.461195 2.826415 -0.716726 10.273400 1.700113 13.950806 0.000000 0.000000 0.000000 -28.491717 12.642553 16.401796 -106.262703 -19.998632 43.988829 31.981080 9.027092 0.532677 18.445990 4.323129 1.470397 0.000000 0.000000 0.000000 26.724317 4.628198 -2.924608 11.991921 2.059173 -2.033314 0.000000 0.000000 0.000000 23.217247 8.079428 2.616706 1.940430 0.957318 11.376378 -41.085179 -37.827910 -27.125164 10.219645 -76.661709 8.205515 0.000000 0.000000 0.000000 20.822747 7.026389 1.188127 5.532048 14.168053 -4.977260 -34.372886 38.446483 26.815581 -168.162946 86.508171 161.360460 0.000000 0.000000 0.000000 
185.222046 22.567804 -36.848686 0.000000 0.000000 0.000000 -99.866477 20.571954 41.259919 -119.954419 -6.625131 25.593511 95.417913 -0.442896 -2.074542 30.891552 -1.289647 -8.505003 0.000000 0.000000 0.000000 -107.407901 -1.799415 62.072944 -122.857864 -12.058287 9.339482 75.864810 2.566755 -1.123778 10.271174 1.692860 13.092562 0.000000 0.000000 0.000000 -29.250954 16.058553 16.903574 -105.800675 -15.787236 45.827120 32.362389 9.160452 0.636491 18.465867 4.445643 1.623878 0.000000 0.000000 0.000000 26.722721 4.880997 -2.744810 11.902995 2.183128 -1.917174 0.000000 0.000000 0.000000 23.501916 8.113577 2.686202 1.973907 1.254179 11.034897 -36.150296 -36.893335 -26.225524 12.513456 -74.780394 9.660593 0.000000 0.000000 0.000000 21.173754 7.064471 1.334031 5.297811 13.669192 -3.722783 -31.080226 35.249496 27.460811 -59.765958 88.993028 53.932601 0.000000 0.000000 0.000000 
189.238785 21.420223 -38.074844 0.000000 0.000000 0.000000 -100.303917 26.166684 43.574500 -119.228793 -4.276138 25.556054 95.597411 0.320394 -1.451730 31.535386 -0.791104 -6.821832 0.000000 0.000000 0.000000 -107.624370 3.469339 65.072790 -121.420273 -10.507992 9.945098 74.977691 2.220611 -1.469494 10.288347 1.574282 12.202408 0.000000 0.000000 0.000000 -29.393559 19.472439 17.095173 -105.393405 -11.003096 47.399785 32.675673 9.207076 0.697350 18.462223 4.523292 1.739498 0.000000 0.000000 0.000000 26.793715 5.086059 -2.596630 11.856241 2.286743 -1.827131 0.000000 0.000000 0.000000 23.823674 8.125919 2.704617 2.060822 1.497450 10.478987 -31.369693 -35.808394 -25.534934 14.203595 -72.865735 10.476037 0.000000 0.000000 0.000000 21.494267 7.117903 1.498836 5.080043 13.264304 -2.456559 -27.720826 32.057387 27.892467 -10.810384 85.225577 5.866411 0.000000 0.000000 0.000000 
192.745056 20.825993 -39.188522 0.000000 0.000000 0.000000 -101.528754 32.088529 46.604737 -118.536922 -1.686440 25.577308 95.605163 1.395121 -0.887468 31.930089 0.117435 -4.883558 0.000000 0.000000 0.000000 -108.232701 9.286767 68.402371 -119.696675 -8.543984 10.446032 74.081810 1.822918 -1.750229 10.445638 1.380630 11.333986 0.000000 0.000000 0.000000 -29.010846 22.840388 16.964646 -105.096360 -5.599297 48.747296 32.930473 9.175459 0.701245 18.439417 4.559145 1.809995 0.000000 0.000000 0.000000 26.908570 5.235770 -2.471399 11.837276 2.363995 -1.759288 0.000000 0.000000 0.000000 24.161060 8.111704 2.670570 2.186981 1.667409 9.700416 -26.899855 -34.624954 -25.236501 15.402983 -71.021523 10.755511 0.000000 0.000000 0.000000 21.742621 7.173883 1.664711 4.840757 12.913112 -1.257793 -24.608629 28.835402 28.212691 -5.430791 80.978900 1.235526 0.000000 0.000000 0.000000 
195.766510 20.757650 -40.096786 0.000000 0.000000 0.000000 -103.966182 38.213259 50.796954 -117.932628 1.117572 25.702263 95.437052 2.743795 -0.406312 32.030606 1.402149 -2.771014 0.000000 0.000000 0.000000 -109.462012 15.361765 72.168243 -117.806311 -6.218060 10.827092 73.360617 1.405707 -1.955733 10.794406 1.136388 10.548193 0.000000 0.000000 0.000000 -28.169046 26.123872 16.502509 -104.954565 0.470899 49.903640 33.144019 9.086291 0.645717 18.405307 4.561883 1.835660 0.000000 0.000000 0.000000 27.040820 5.330541 -2.362695 11.832577 2.414539 -1.710507 0.000000 0.000000 0.000000 24.489916 8.066663 2.584642 2.334437 1.749593 8.697369 -22.855657 -33.423862 -25.432460 16.209316 -69.326195 10.601331 0.000000 0.000000 0.000000 21.892863 7.221495 1.814415 4.559712 12.587466 -0.200540 -21.969510 25.577720 28.509078 -3.496719 76.753117 -0.125921 0.000000 0.000000 0.000000 
198.373367 21.152073 -40.734863 0.000000 0.000000 0.000000 -108.076904 44.309397 56.622422 -117.438737 4.119488 25.956814 95.077374 4.275560 -0.020993 31.790463 2.952884 -0.605191 0.000000 0.000000 0.000000 -111.464213 21.365725 76.443525 -115.849953 -3.601540 11.070665 72.891963 1.003698 -2.071327 11.317315 0.863389 9.915620 0.000000 0.000000 0.000000 -26.916801 29.293971 15.705339 -105.017082 7.244963 50.918777 33.331893 8.971038 0.544179 18.366445 4.544825 1.826443 0.000000 0.000000 0.000000 27.165710 5.379111 -2.261190 11.829491 2.443360 -1.675435 0.000000 0.000000 0.000000 24.786553 7.987691 2.451222 2.484021 1.734208 7.483941 -19.300467 -32.288049 -26.124273 16.705425 -67.824400 10.116013 0.000000 0.000000 0.000000 21.936935 7.253377 1.935537 4.234674 12.273420 0.666232 -19.926884 22.302267 28.851593 -2.695956 72.709775 -0.538630 0.000000 0.000000 0.000000 
200.660233 21.921448 -41.079609 0.000000 0.000000 0.000000 -114.297950 49.983741 64.499771 -117.057394 7.286544 26.340662 94.517879 5.847323 0.268116 31.194519 4.587567 1.457762 0.000000 0.000000 0.000000 -114.300135 26.978236 81.245230 -113.908847 -0.780690 11.159218 72.674845 0.659858 -2.081414 11.947378 0.591972 9.517906 0.000000 0.000000 0.000000 -25.294011 32.330246 14.581467 -105.345231 14.731504 51.884429 33.501306 8.867373 0.424957 18.324696 4.523702 1.800954 0.000000 0.000000 0.000000 27.258377 5.396986 -2.151603 11.815606 2.459341 -1.644691 0.000000 0.000000 0.000000 25.030994 7.873422 2.279306 2.618368 1.615790 6.096416 -16.246971 -31.280750 -27.217252 16.969112 -66.526767 9.410141 0.000000 0.000000 0.000000 21.881703 7.266438 2.022701 3.876991 11.969960 1.328689 -18.518659 19.034339 29.292287 -2.486853 68.963081 -0.531785 0.000000 0.000000 0.000000 
202.728104 22.965481 -41.156979 0.000000 0.000000 0.000000 -122.819232 54.727167 74.572367 -116.776700 10.549681 26.826394 93.783640 7.278165 0.467889 30.293067 6.081405 3.237690 0.000000 0.000000 0.000000 -117.936958 31.943244 86.530895 -112.040921 2.153208 11.080415 72.672455 0.428313 -1.972149 12.598456 0.368752 9.446687 0.000000 0.000000 0.000000 -23.340751 35.210879 13.156455 -106.020232 22.873091 52.954586 33.650225 8.811957 0.324596 18.277001 4.513557 1.782191 0.000000 0.000000 0.000000 27.293132 5.403928 -2.014327 11.778533 2.473609 -1.605618 0.000000 0.000000 0.000000 25.209694 7.724699 2.081769 2.725000 1.393817 4.593286 -13.665386 -30.436300 -28.547194 17.080838 -65.418124 8.604845 0.000000 0.000000 0.000000 21.742924 7.261516 2.077492 3.504890 11.684858 1.807193 -17.729382 15.791715 29.866320 -2.671918 65.579105 -0.278585 0.000000 0.000000 0.000000 
204.673645 24.182236 -41.039162 0.000000 0.000000 0.000000 -133.190164 58.096319 86.330736 -116.572888 13.795236 27.365341 92.952864 8.375727 0.583469 29.214515 7.213371 4.548560 0.000000 0.000000 0.000000 -122.266083 36.102666 92.216761 -110.278274 5.114736 10.833470 72.850695 0.373956 -1.732118 13.193520 0.257404 9.800212 0.000000 0.000000 0.000000 -21.111505 37.898216 11.481376 -107.159637 31.488692 54.359433 33.770084 8.832712 0.278636 18.216890 4.525624 1.791814 0.000000 0.000000 0.000000 27.245133 5.421366 -1.831713 11.706631 2.498295 -1.545738 0.000000 0.000000 0.000000 25.317133 7.544882 1.873351 2.798828 1.074041 3.048648 -11.495002 -29.763348 -29.920402 17.123783 -64.470442 7.824197 0.000000 0.000000 0.000000 21.538701 7.242240 2.106618 3.137127 11.429267 2.146865 -17.518452 12.579428 30.591085 -3.164088 62.579395 0.161729 0.000000 0.000000 0.000000 
206.585709 25.476637 -40.830765 0.000000 0.000000 0.000000 -144.140487 59.970222 98.458727 -116.407624 16.876224 27.899812 92.159654 8.967448 0.610286 28.146376 7.810160 5.222072 0.000000 0.000000 0.000000 -127.133098 39.396210 98.205054 -108.625669 8.034006 10.432048 73.200742 0.566911 -1.352566 13.683190 0.330466 10.673693 0.000000 0.000000 0.000000 -18.690048 40.328691 9.641091 -108.935602 40.228189 56.408142 33.851145 8.943182 0.312617 18.137448 4.565331 1.844775 0.000000 0.000000 0.000000 27.094408 5.470366 -1.596347 11.590682 2.545841 -1.457546 0.000000 0.000000 0.000000 25.355653 7.339931 1.668164 2.843193 0.669446 1.541231 -9.656739 -29.254776 -31.154921 17.177072 -63.655492 7.180364 0.000000 0.000000 0.000000 21.284775 7.213761 2.119290 2.788702 11.213310 2.404558 -17.834420 9.395599 31.463608 -3.918781 59.952395 0.770673 0.000000 0.000000 0.000000 
208.545181 26.767551 -40.649506 0.000000 0.000000 0.000000 -154.134010 60.655119 109.409173 -116.223428 19.639205 28.377407 91.572667 8.928631 0.534861 27.288511 7.769468 5.135805 0.000000 0.000000 0.000000 -132.359203 41.834803 104.395808 -107.061016 10.859908 9.899371 73.743292 1.069809 -0.828657 14.051089 0.651391 12.140401 0.000000 0.000000 0.000000 -16.197440 42.411322 7.757769 -111.573537 48.577152 59.465430 33.887820 9.140356 0.436606 18.034269 4.631793 1.946208 0.000000 0.000000 0.000000 26.830651 5.570107 -1.317528 11.425978 2.628435 -1.342583 0.000000 0.000000 0.000000 25.333348 7.118151 1.477594 2.868710 0.199709 0.142688 -8.066593 -28.897485 -32.112520 17.305071 -62.952610 6.757030 0.000000 0.000000 0.000000 20.992422 7.181737 2.124751 2.469096 11.043997 2.636672 -18.615600 6.244437 32.458848 -4.903066 57.668694 1.537809 0.000000 0.000000 0.000000 
210.624496 27.994555 -40.608154 0.000000 0.000000 0.000000 -162.212485 60.704706 118.257677 -115.940617 21.956335 28.761715 91.352544 8.200683 0.346450 26.796273 7.058905 4.238957 0.000000 0.000000 0.000000 -137.742731 43.474151 110.671604 -105.539031 13.555894 9.254996 74.511982 1.919032 -0.163134 14.303379 1.250736 14.224549 0.000000 0.000000 0.000000 -13.785050 44.038099 5.982887 -115.280657 55.944567 63.858505 33.880812 9.406789 0.644912 17.906806 4.718968 2.091590 0.000000 0.000000 0.000000 26.456758 5.736474 -1.022767 11.213788 2.757022 -1.212871 0.000000 0.000000 0.000000 25.260551 6.889640 1.309192 2.889820 -0.310782 -1.091281 -6.650438 -28.677014 -32.716237 17.546636 -62.350406 6.596950 0.000000 0.000000 0.000000 20.668724 7.151868 2.130535 2.182507 10.925601 2.890332 -19.783542 3.150961 33.532079 -6.077855 55.696272 2.443665 0.000000 0.000000 0.000000 
212.885895 29.123550 -40.802147 0.000000 0.000000 0.000000 -168.190963 60.662182 124.891074 -115.457764 23.748259 29.032706 91.607959 6.795152 0.053123 26.738401 5.699585 2.565675 0.000000 0.000000 0.000000 -143.052233 44.404996 116.871845 -103.997417 16.088294 8.497819 75.527644 3.103502 0.629162 14.453345 2.103601 16.873552 0.000000 0.000000 0.000000 -11.606844 45.098790 4.472673 -120.019784 61.818581 69.637317 33.835459 9.715206 0.920507 17.757698 4.817502 2.269652 0.000000 0.000000 0.000000 25.989271 5.980347 -0.753287 10.961461 2.939631 -1.088943 0.000000 0.000000 0.000000 25.146038 6.665612 1.166710 2.920148 -0.835164 -2.124874 -5.358726 -28.576559 -32.954140 17.907752 -61.844460 6.697126 0.000000 0.000000 0.000000 20.318279 7.129719 2.141546 1.929358 10.861372 3.198354 -21.236926 0.171242 34.626662 -7.388751 54.013225 3.452722 0.000000 0.000000 0.000000 
